<svg width="20" height="20" viewBox="0 0 20 20" fill="none" xmlns="http://www.w3.org/2000/svg">
<path fill-rule="evenodd" clip-rule="evenodd" d="M14.1357 14.9974C12.8152 16.1216 11.1035 16.8 9.23341 16.8C5.05446 16.8 1.66675 13.4123 1.66675 9.23333C1.66675 5.05438 5.05446 1.66666 9.23341 1.66666C13.4124 1.66666 16.8001 5.05438 16.8001 9.23333C16.8001 11.0922 16.1298 12.7944 15.0178 14.1117L18.6498 17.7437L17.7659 18.6275L14.1357 14.9974ZM15.5501 9.23333C15.5501 12.7219 12.722 15.55 9.23341 15.55C5.74482 15.55 2.91675 12.7219 2.91675 9.23333C2.91675 5.74473 5.74482 2.91666 9.23341 2.91666C12.722 2.91666 15.5501 5.74473 15.5501 9.23333Z" fill="black" fill-opacity="0.7"/>
</svg>
